<?xml version="1.0" standalone="no"?>
<!DOCTYPE svg PUBLIC "-//W3C//DTD SVG 20010904//EN"
 "http://www.w3.org/TR/2001/REC-SVG-20010904/DTD/svg10.dtd">
<svg version="1.0" xmlns="http://www.w3.org/2000/svg"
 width="512.000000pt" height="512.000000pt" viewBox="0 0 512.000000 512.000000"
 preserveAspectRatio="xMidYMid meet">

<g transform="translate(0.000000,512.000000) scale(0.100000,-0.100000)"
fill="#000000" stroke="none">
<path d="M2345 5109 c-315 -30 -561 -147 -704 -336 -160 -211 -222 -480 -223
-978 -1 -251 8 -339 53 -500 89 -321 287 -596 564 -780 216 -143 434 -210 602
-185 244 37 507 189 706 408 183 202 289 424 343 722 23 125 23 514 0 715 -46
409 -178 646 -443 802 -191 112 -551 165 -898 132z m472 -472 c57 -13 106 -26
109 -30 6 -6 -61 -185 -75 -200 -5 -4 -53 1 -109 13 -55 11 -137 20 -182 20
-45 0 -127 -9 -182 -20 -56 -12 -104 -17 -109 -13 -4 4 -24 50 -45 102 -29 72
-34 95 -24 101 12 7 176 44 245 54 70 10 273 -4 372 -27z m-9 -527 c154 -37
272 -102 436 -237 82 -68 106 -83 134 -83 44 0 84 29 128 93 l36 52 -5 -195
c-8 -273 -36 -413 -122 -596 -116 -250 -332 -465 -579 -580 -91 -42 -211 -74
-276 -74 -173 0 -433 133 -616 315 -104 103 -179 209 -239 339 -86 183 -114
323 -122 596 l-5 195 36 -52 c44 -64 84 -93 128 -93 28 0 52 15 134 83 192
159 328 224 532 257 90 14 305 4 400 -20z"/>
<path d="M1660 2344 c-553 -300 -787 -436 -855 -496 -140 -123 -293 -499 -361
-888 l-16 -96 27 -54 c34 -67 165 -200 255 -258 36 -24 114 -68 173 -98 l109
-56 26 25 c15 13 37 30 50 36 22 12 22 13 -25 44 -100 68 -125 190 -62 308 41
77 153 191 232 238 207 122 446 128 662 18 61 -31 101 -62 168 -129 l87 -88
433 0 432 0 63 70 c69 76 121 115 210 160 197 97 441 86 639 -31 79 -47 191
-161 232 -238 38 -72 44 -149 17 -213 -17 -40 -77 -104 -107 -113 -16 -5 -11
-13 33 -45 l51 -39 106 54 c58 30 135 73 171 97 90 58 221 191 255 257 27 53
27 56 15 130 -17 114 -84 384 -120 486 -40 115 -120 275 -171 342 -70 93 -131
135 -474 328 -367 205 -651 355 -675 355 -13 0 -65 -27 -117 -61 -108 -70
-187 -107 -290 -139 -40 -12 -83 -30 -95 -40 -16 -12 -47 -83 -98 -219 -41
-110 -77 -201 -80 -201 -3 0 -39 91 -80 201 -51 136 -82 207 -98 219 -12 10
-55 28 -95 40 -103 32 -182 69 -290 139 -52 34 -105 61 -118 61 -13 0 -112
-48 -219 -106z"/>
<path d="M1455 936 c-116 -29 -214 -95 -278 -188 -61 -88 -62 -88 193 -88 164
0 221 -3 227 -12 11 -17 17 -236 8 -304 l-6 -54 -218 0 c-260 0 -262 -1 -211
-80 64 -100 181 -176 308 -202 83 -16 202 1 289 42 76 35 166 121 208 198 l28
52 558 0 557 0 22 -45 c51 -106 172 -202 298 -236 193 -54 406 26 512 192 50
77 48 78 -208 81 l-216 3 -8 30 c-11 39 -11 261 0 300 l8 30 216 3 c261 3 262
3 201 90 -52 75 -144 144 -230 173 -83 29 -208 31 -295 5 -111 -33 -221 -126
-274 -228 l-24 -48 -560 0 -559 0 -32 61 c-92 172 -321 273 -514 225z"/>
</g>
</svg>
