<?xml version="1.0" standalone="no"?>
<!DOCTYPE svg PUBLIC "-//W3C//DTD SVG 20010904//EN"
 "http://www.w3.org/TR/2001/REC-SVG-20010904/DTD/svg10.dtd">
<svg version="1.0" xmlns="http://www.w3.org/2000/svg"
 width="512.000000pt" height="512.000000pt" viewBox="0 0 512.000000 512.000000"
 preserveAspectRatio="xMidYMid meet">

<g transform="translate(0.000000,512.000000) scale(0.100000,-0.100000)"
fill="#000000" stroke="none">
<path d="M3129 5030 c-153 -27 -326 -97 -450 -181 -170 -114 -327 -305 -408
-498 -127 -300 -115 -634 32 -933 l52 -107 -178 -308 c-98 -169 -183 -327
-190 -350 -25 -95 45 -196 150 -216 22 -4 78 5 167 28 74 19 143 35 154 35 43
0 62 -31 96 -161 18 -69 40 -138 49 -155 54 -104 207 -127 285 -41 13 13 104
164 201 333 l179 309 43 3 44 2 163 -284 c90 -156 176 -304 192 -329 67 -106
205 -117 287 -24 31 35 39 57 84 226 24 91 45 121 84 121 14 0 86 -16 160 -35
120 -32 139 -35 177 -24 87 23 138 87 138 174 0 55 8 40 -202 403 l-169 294
44 86 c95 185 132 357 124 567 -7 166 -38 290 -110 439 -53 110 -161 267 -197
286 -29 15 -55 12 -84 -11 -43 -34 -35 -72 29 -152 265 -330 286 -797 51
-1150 -133 -200 -334 -345 -567 -409 -73 -20 -106 -23 -254 -22 -156 0 -177 2
-260 28 -718 220 -949 1089 -431 1624 120 125 279 218 450 265 69 19 107 22
251 22 190 0 258 -14 403 -80 41 -19 88 -35 103 -35 59 0 90 72 52 119 -23 28
-174 92 -283 121 -68 18 -118 23 -250 26 -91 1 -186 -1 -211 -6z m-442 -2053
c98 -65 220 -121 326 -149 48 -12 87 -25 87 -28 0 -3 -71 -129 -159 -280 -134
-233 -162 -275 -182 -275 -25 0 -23 -5 -70 167 -35 132 -71 186 -143 219 -59
27 -114 23 -260 -16 -127 -33 -156 -34 -156 -3 0 6 73 136 161 289 l161 280
82 -78 c44 -43 113 -100 153 -126z m1652 -85 c83 -145 151 -269 151 -277 0
-33 -25 -33 -150 1 -150 40 -210 43 -271 11 -71 -38 -101 -87 -138 -228 -18
-68 -37 -132 -42 -141 -24 -45 -44 -20 -204 258 -88 152 -161 281 -163 285 -2
5 4 9 14 9 36 0 191 53 268 92 115 57 205 120 288 202 52 50 76 68 84 61 7 -5
80 -128 163 -273z"/>
<path d="M3267 4605 c-70 -24 -84 -46 -143 -231 l-55 -172 -187 -4 c-208 -4
-236 -11 -272 -71 -31 -50 -34 -89 -13 -139 17 -36 42 -59 164 -147 79 -58
146 -106 148 -108 2 -1 -21 -85 -53 -185 -59 -190 -60 -204 -27 -266 19 -35
74 -62 129 -62 53 0 46 -4 311 188 l44 32 31 -23 c72 -55 243 -175 264 -186
57 -30 142 -7 184 50 37 50 34 91 -26 274 -30 93 -52 173 -48 177 4 4 68 51
142 105 158 116 184 147 177 216 -4 51 -26 88 -71 121 -25 19 -44 21 -219 24
l-192 4 -54 169 c-60 185 -82 220 -149 239 -44 12 -38 12 -85 -5z m188 -513
l33 -37 196 -3 c108 -2 196 -6 195 -10 0 -4 -65 -54 -144 -111 -149 -107 -175
-137 -175 -198 0 -17 24 -105 54 -196 29 -92 48 -163 41 -159 -6 4 -73 51
-148 105 -143 103 -179 118 -238 98 -19 -6 -95 -56 -169 -110 -74 -54 -137
-98 -138 -96 -2 2 19 73 47 158 55 169 62 224 32 273 -10 17 -83 78 -162 135
l-144 104 195 5 c264 7 243 -10 330 255 l53 159 54 -168 c43 -134 61 -175 88
-204z"/>
<path d="M1405 2189 c-192 -15 -324 -51 -554 -151 -134 -59 -166 -69 -180 -59
-9 6 -45 26 -80 43 -92 45 -179 49 -285 14 -192 -65 -268 -118 -295 -205 -6
-22 -11 -109 -11 -203 0 -159 1 -165 23 -186 31 -29 77 -29 105 1 21 22 22 33
22 184 0 139 2 164 18 181 25 30 213 102 265 102 65 -1 118 -25 161 -72 32
-36 71 -124 247 -558 187 -464 208 -521 209 -574 0 -72 -35 -143 -89 -180 -50
-34 -703 -296 -739 -296 -17 0 -37 9 -50 23 -22 23 -22 25 -22 466 0 269 -4
449 -10 461 -23 43 -116 40 -134 -5 -3 -9 -6 -221 -6 -470 l0 -453 27 -52 c41
-77 96 -113 181 -118 67 -4 71 -3 407 133 187 75 366 151 398 168 91 48 153
130 181 239 l13 51 149 65 c120 53 158 65 201 65 64 0 82 -9 368 -183 235
-143 365 -203 527 -245 321 -81 676 -48 975 90 122 56 551 304 568 328 20 29
19 49 -6 81 -37 47 -62 38 -333 -114 -277 -156 -342 -187 -469 -224 -144 -42
-213 -51 -382 -51 -306 1 -466 55 -839 284 -253 155 -285 171 -360 179 -92 11
-153 -3 -292 -64 -69 -31 -128 -54 -130 -51 -15 15 -404 1001 -397 1008 16 16
278 127 348 147 223 65 470 73 679 23 89 -22 1588 -486 1615 -501 10 -5 34
-27 54 -50 35 -37 37 -44 37 -104 0 -106 -32 -158 -125 -202 -96 -46 -135 -39
-599 96 -226 66 -421 120 -432 120 -53 0 -84 -88 -44 -125 12 -10 193 -69 428
-139 l407 -120 120 -1 c115 0 123 1 186 32 131 64 199 164 207 306 l5 78 56
26 c269 120 674 265 916 328 125 32 145 35 184 25 25 -6 57 -20 72 -31 34 -24
69 -95 69 -140 -1 -49 -32 -112 -71 -141 -19 -14 -188 -112 -375 -218 -338
-190 -364 -209 -364 -256 0 -25 47 -64 77 -64 36 1 711 383 775 439 27 24 59
66 75 99 24 49 28 68 27 142 0 67 -5 95 -23 131 -35 74 -86 125 -157 160 -53
26 -76 32 -132 32 -149 0 -639 -156 -1046 -332 l-137 -60 -39 39 c-22 22 -61
50 -87 63 -44 22 -1438 459 -1613 506 -138 37 -325 53 -475 40z"/>
</g>
</svg>
