<?xml version="1.0" standalone="no"?>
<!DOCTYPE svg PUBLIC "-//W3C//DTD SVG 20010904//EN"
 "http://www.w3.org/TR/2001/REC-SVG-20010904/DTD/svg10.dtd">
<svg version="1.0" xmlns="http://www.w3.org/2000/svg"
 width="512.000000pt" height="512.000000pt" viewBox="0 0 512.000000 512.000000"
 preserveAspectRatio="xMidYMid meet">

<g transform="translate(0.000000,512.000000) scale(0.100000,-0.100000)"
fill="#000000" stroke="none">
<path d="M2431 4609 c-293 -49 -558 -295 -627 -584 -10 -39 -18 -71 -19 -73
-1 -1 -25 13 -53 32 -79 53 -162 77 -282 83 -123 6 -198 -9 -300 -60 -194 -96
-324 -343 -293 -556 14 -94 44 -175 89 -243 19 -28 31 -54 27 -58 -4 -4 -43
-21 -86 -38 -251 -100 -387 -219 -455 -400 -24 -62 -26 -83 -30 -270 -5 -261
8 -310 99 -378 62 -46 336 -123 548 -154 l123 -18 52 -51 c34 -33 74 -60 112
-76 l59 -24 6 -113 c9 -159 24 -236 50 -265 21 -21 30 -23 135 -23 l112 0 12
-31 c13 -30 12 -31 -65 -109 -99 -99 -101 -117 -32 -211 63 -85 175 -197 265
-267 105 -80 120 -78 222 23 78 77 79 78 109 65 l31 -12 0 -112 c0 -105 1
-114 24 -135 69 -65 523 -65 592 0 23 21 24 30 24 135 l0 112 31 12 c30 13 31
12 109 -65 102 -101 117 -103 221 -23 94 71 186 163 257 257 80 104 78 119
-23 221 -77 78 -78 79 -65 109 l12 31 112 0 c105 0 114 1 135 24 27 28 51 166
51 294 0 70 3 84 18 89 65 22 123 57 163 98 l47 47 123 18 c212 31 486 108
548 154 91 68 104 117 99 378 -4 187 -6 208 -30 270 -74 196 -214 310 -526
429 l-24 9 22 33 c164 246 138 532 -64 732 -113 111 -252 161 -426 152 -119
-6 -196 -28 -281 -82 l-54 -34 -20 77 c-37 138 -96 243 -194 345 -180 190
-437 278 -690 236z m271 -168 c188 -48 337 -172 420 -347 107 -227 58 -503
-122 -683 -357 -358 -944 -179 -1047 318 -46 224 52 471 241 606 160 114 335
150 508 106z m-1117 -561 c84 -32 183 -132 214 -215 87 -231 -25 -466 -257
-544 -190 -64 -392 30 -490 228 -34 70 -37 81 -37 165 0 81 4 98 32 158 77
164 206 242 388 235 63 -3 108 -11 150 -27z m2277 1 c84 -33 159 -105 205
-199 35 -71 38 -82 38 -166 0 -84 -3 -97 -36 -166 -68 -143 -200 -236 -351
-247 -179 -13 -354 108 -408 285 -27 86 -25 155 5 251 39 124 126 210 253 252
78 26 214 21 294 -10z m-1872 -571 c0 -4 -9 -10 -21 -13 -15 -4 -19 -2 -15 10
3 8 6 19 6 25 0 6 6 6 15 -2 8 -7 15 -16 15 -20z m1179 -12 c1 -3 -8 -4 -19
-1 -23 6 -25 14 -8 31 10 10 14 9 20 -5 3 -10 7 -21 7 -25z m-959 -152 c215
-114 509 -110 719 11 l44 25 81 -22 c166 -45 372 -139 507 -230 118 -80 210
-210 244 -345 22 -87 22 -563 0 -606 -25 -47 -115 -92 -115 -57 0 6 -10 22
-22 35 -20 21 -29 23 -134 23 l-112 0 -12 31 c-13 30 -12 31 65 109 101 102
103 117 23 221 -71 95 -164 188 -257 258 -105 79 -119 77 -221 -24 -78 -77
-79 -78 -109 -65 l-31 12 0 112 c0 144 -6 151 -142 172 -182 27 -426 8 -474
-37 -23 -21 -24 -29 -24 -135 l0 -112 -31 -12 c-30 -13 -31 -12 -109 65 -102
101 -117 103 -221 23 -95 -71 -188 -164 -258 -257 -79 -105 -77 -119 24 -221
77 -78 78 -79 65 -109 l-12 -31 -111 0 c-100 0 -113 -2 -134 -22 -13 -12 -23
-27 -23 -35 0 -34 -82 3 -110 50 -18 30 -20 52 -20 292 0 289 6 331 63 445 64
128 185 230 392 331 115 56 323 131 385 138 3 1 35 -14 70 -33z m-1023 -151
c29 -13 72 -30 98 -36 l46 -12 -26 -31 c-73 -90 -136 -228 -155 -338 -7 -37
-13 -168 -13 -290 l-2 -223 -50 3 c-74 5 -258 46 -384 87 -83 27 -115 42 -127
60 -13 21 -15 54 -12 217 3 185 4 195 30 250 50 107 115 166 266 242 73 37
234 95 263 96 8 0 38 -11 66 -25z m2914 -5 c171 -57 322 -147 378 -225 70 -97
75 -121 79 -333 3 -163 1 -196 -12 -217 -12 -18 -44 -33 -127 -60 -126 -41
-310 -82 -384 -87 l-50 -3 -2 230 c-1 164 -6 251 -17 305 -18 87 -87 235 -140
300 l-36 45 53 16 c28 9 70 25 92 37 52 28 61 27 166 -8z m-1427 -336 l46 -7
0 -107 0 -108 31 -26 c17 -14 37 -26 45 -26 8 0 44 -13 81 -30 36 -16 77 -30
91 -30 17 0 48 23 102 76 l78 75 61 -51 c33 -28 83 -78 111 -111 l51 -61 -75
-78 c-82 -84 -90 -104 -60 -162 9 -17 27 -60 40 -96 12 -35 31 -70 41 -78 13
-9 50 -13 124 -14 l106 0 7 -46 c8 -60 8 -168 0 -228 l-7 -46 -106 0 c-74 -1
-111 -5 -124 -14 -10 -8 -29 -45 -43 -82 -13 -38 -31 -78 -39 -91 -32 -48 -20
-80 61 -163 l75 -78 -51 -61 c-28 -33 -78 -83 -111 -111 l-61 -51 -78 75 c-83
81 -115 93 -163 61 -13 -8 -53 -26 -91 -39 -37 -14 -74 -33 -82 -43 -9 -13
-13 -50 -14 -124 l0 -106 -46 -7 c-60 -8 -168 -8 -228 0 l-46 7 0 107 0 108
-31 26 c-17 14 -38 26 -47 26 -9 0 -44 14 -77 30 -92 45 -105 42 -195 -46
l-78 -75 -66 56 c-36 31 -86 81 -111 112 l-46 56 76 77 c81 84 89 105 59 162
-9 17 -27 60 -40 96 -12 35 -31 70 -41 78 -13 9 -50 13 -124 14 l-106 0 -7 46
c-8 60 -8 168 0 228 l7 46 107 0 108 0 26 31 c14 17 26 37 26 45 0 8 14 44 30
81 17 36 30 77 30 91 0 17 -23 48 -75 102 l-76 77 46 56 c25 31 75 81 111 112
l66 56 78 -75 c54 -53 85 -76 102 -76 14 0 55 14 91 30 37 17 73 30 81 30 8 0
28 12 45 26 l31 26 0 108 0 109 33 4 c56 7 192 7 241 1z"/>
<path d="M2445 2166 c-155 -38 -295 -156 -361 -302 -120 -270 23 -589 311
-696 85 -31 245 -31 330 0 150 56 271 177 327 329 31 83 31 243 0 328 -79 212
-283 357 -500 354 -31 0 -79 -6 -107 -13z m257 -178 c79 -36 142 -98 181 -177
28 -58 32 -75 32 -151 0 -76 -4 -93 -32 -151 -39 -79 -102 -140 -181 -177 -48
-23 -71 -27 -142 -27 -71 0 -94 4 -142 27 -79 37 -142 98 -181 177 -28 58 -32
75 -32 151 0 71 4 94 26 141 87 185 295 267 471 187z"/>
</g>
</svg>
